<svg version="1.1" viewBox="0.0 0.0 1000.0 1000.0" fill="none" stroke="none" stroke-linecap="square" stroke-miterlimit="10" xmlns:xlink="http://www.w3.org/1999/xlink" xmlns="http://www.w3.org/2000/svg"><clipPath id="p.0"><path d="m0 0l1000.0 0l0 1000.0l-1000.0 0l0 -1000.0z" clip-rule="nonzero"/></clipPath><g clip-path="url(#p.0)"><path fill="#073763" d="m0 0l1000.0 0l0 1000.0l-1000.0 0z" fill-rule="evenodd"/><path fill="#0b5394" d="m239.77953 128.26772l0 148.69292l-173.48032 -148.69292z" fill-rule="evenodd"/><path stroke="#0b5394" stroke-width="1.0" stroke-linejoin="round" stroke-linecap="butt" d="m239.77953 128.26772l0 148.69292l-173.48032 -148.69292z" fill-rule="evenodd"/><path fill="#efefef" d="m586.7402 0l0 1000.0l-173.48032 0l0 -1000.0z" fill-rule="evenodd"/><path stroke="#efefef" stroke-width="1.0" stroke-linejoin="round" stroke-linecap="butt" d="m586.7402 0l0 1000.0l-173.48032 0l0 -1000.0z" fill-rule="evenodd"/><path fill="#d9d9d9" d="m413.25986 574.34644l0 -148.6929l173.48032 148.6929z" fill-rule="evenodd"/><path stroke="#d9d9d9" stroke-width="1.0" stroke-linejoin="round" stroke-linecap="butt" d="m413.25986 574.34644l0 -148.6929l173.48032 148.6929z" fill-rule="evenodd"/><path fill="#d9d9d9" d="m586.7402 574.9685l0 425.03937l-173.48032 0l0 -425.03937z" fill-rule="evenodd"/><path stroke="#d9d9d9" stroke-width="1.0" stroke-linejoin="round" stroke-linecap="butt" d="m586.7402 574.9685l0 425.03937l-173.48032 0l0 -425.03937z" fill-rule="evenodd"/><path fill="#0b5394" d="m760.22046 574.34644l0 148.69293l-173.48029 -148.69293z" fill-rule="evenodd"/><path stroke="#0b5394" stroke-width="1.0" stroke-linejoin="round" stroke-linecap="butt" d="m760.22046 574.34644l0 148.69293l-173.48029 -148.69293z" fill-rule="evenodd"/><path fill="#0b5394" d="m933.7008 723.03937l0 148.69293l-173.48035 -148.69293z" fill-rule="evenodd"/><path stroke="#0b5394" stroke-width="1.0" stroke-linejoin="round" stroke-linecap="butt" d="m933.7008 723.03937l0 148.69293l-173.48035 -148.69293z" fill-rule="evenodd"/><path fill="#0b5394" d="m413.25986 276.96063l0 148.6929l-173.48033 -148.6929z" fill-rule="evenodd"/><path stroke="#0b5394" stroke-width="1.0" stroke-linejoin="round" stroke-linecap="butt" d="m413.25986 276.96063l0 148.6929l-173.48033 -148.6929z" fill-rule="evenodd"/><path fill="#0b5394" d="m239.77953 173.48032l173.48033 0l0 102.86615l-173.48033 0z" fill-rule="evenodd"/><path stroke="#0b5394" stroke-width="1.0" stroke-linejoin="round" stroke-linecap="butt" d="m239.77953 173.48032l173.48033 0l0 102.86615l-173.48033 0z" fill-rule="evenodd"/><path fill="#efefef" d="m0 0l1000.0 0l0 173.48032l-1000.0 0z" fill-rule="evenodd"/><path stroke="#efefef" stroke-width="1.0" stroke-linejoin="round" stroke-linecap="butt" d="m0 0l1000.0 0l0 173.48032l-1000.0 0z" fill-rule="evenodd"/><path fill="#d9d9d9" d="m0 221.29921l0 -148.6929l173.48032 148.6929z" fill-rule="evenodd"/><path stroke="#d9d9d9" stroke-width="1.0" stroke-linejoin="round" stroke-linecap="butt" d="m0 221.29921l0 -148.6929l173.48032 148.6929z" fill-rule="evenodd"/><path fill="#0b5394" d="m586.7402 173.48032l413.25983 0l0 400.85037l-413.25983 0z" fill-rule="evenodd"/><path stroke="#0b5394" stroke-width="1.0" stroke-linejoin="round" stroke-linecap="butt" d="m586.7402 173.48032l413.25983 0l0 400.85037l-413.25983 0z" fill-rule="evenodd"/><path fill="#0b5394" d="m760.22046 574.9685l239.77954 0l0 148.69293l-239.77954 0z" fill-rule="evenodd"/><path stroke="#0b5394" stroke-width="1.0" stroke-linejoin="round" stroke-linecap="butt" d="m760.22046 574.9685l239.77954 0l0 148.69293l-239.77954 0z" fill-rule="evenodd"/><path fill="#0b5394" d="m1107.1812 871.7323l0 148.69287l-173.48035 -148.69287z" fill-rule="evenodd"/><path stroke="#0b5394" stroke-width="1.0" stroke-linejoin="round" stroke-linecap="butt" d="m1107.1812 871.7323l0 148.69287l-173.48035 -148.69287z" fill-rule="evenodd"/><path fill="#0b5394" d="m934.32544 723.6667l65.66931 0l0 148.69287l-65.66931 0z" fill-rule="evenodd"/><path stroke="#0b5394" stroke-width="1.0" stroke-linejoin="round" stroke-linecap="butt" d="m934.32544 723.6667l65.66931 0l0 148.69287l-65.66931 0z" fill-rule="evenodd"/><path fill="#073763" d="m119.58268 322.17322l0 -148.6929l173.48032 148.6929z" fill-rule="evenodd"/><path stroke="#073763" stroke-width="1.0" stroke-linejoin="round" stroke-linecap="butt" d="m119.58268 322.17322l0 -148.6929l173.48032 148.6929z" fill-rule="evenodd"/><path fill="#073763" d="m0 173.48032l119.59055 0l0 71.87401l-119.59055 0z" fill-rule="evenodd"/><path stroke="#073763" stroke-width="1.0" stroke-linejoin="round" stroke-linecap="butt" d="m0 173.48032l119.59055 0l0 71.87401l-119.59055 0z" fill-rule="evenodd"/></g></svg>