<svg version="1.1" viewBox="0.0 0.0 1000.0 1000.0" fill="none" stroke="none" stroke-linecap="square" stroke-miterlimit="10" xmlns:xlink="http://www.w3.org/1999/xlink" xmlns="http://www.w3.org/2000/svg"><clipPath id="p.0"><path d="m0 0l1000.0 0l0 1000.0l-1000.0 0l0 -1000.0z" clip-rule="nonzero"/></clipPath><g clip-path="url(#p.0)"><path fill="#073763" d="m0 0l1000.0 0l0 1000.0l-1000.0 0z" fill-rule="evenodd"/><path fill="#0b5394" d="m1000.0 0l0 1000.0l-1000.0 -1000.0z" fill-rule="evenodd"/><path stroke="#0b5394" stroke-width="1.0" stroke-linejoin="round" stroke-linecap="butt" d="m1000.0 0l0 1000.0l-1000.0 -1000.0z" fill-rule="evenodd"/><path fill="#d9d9d9" d="m586.7402 591.0236l0 408.66144l-173.48032 0l0 -408.66144z" fill-rule="evenodd"/><path stroke="#d9d9d9" stroke-width="1.0" stroke-linejoin="round" stroke-linecap="butt" d="m586.7402 591.0236l0 408.66144l-173.48032 0l0 -408.66144z" fill-rule="evenodd"/><path fill="#efefef" d="m0 0l1000.0 0l0 173.48032l-1000.0 0z" fill-rule="evenodd"/><path stroke="#efefef" stroke-width="1.0" stroke-linejoin="round" stroke-linecap="butt" d="m0 0l1000.0 0l0 173.48032l-1000.0 0z" fill-rule="evenodd"/><path fill="#d9d9d9" d="m0 173.48032l0 -173.48032l173.48032 173.48032z" fill-rule="evenodd"/><path stroke="#d9d9d9" stroke-width="1.0" stroke-linejoin="round" stroke-linecap="butt" d="m0 173.48032l0 -173.48032l173.48032 173.48032z" fill-rule="evenodd"/><path fill="#efefef" d="m586.7402 113.92126l0 477.10236l-173.48032 0l0 -477.10236z" fill-rule="evenodd"/><path stroke="#efefef" stroke-width="1.0" stroke-linejoin="round" stroke-linecap="butt" d="m586.7402 113.92126l0 477.10236l-173.48032 0l0 -477.10236z" fill-rule="evenodd"/><path fill="#d9d9d9" d="m413.25986 591.03937l0 -176.22046l173.48032 176.22046z" fill-rule="evenodd"/><path stroke="#d9d9d9" stroke-width="1.0" stroke-linejoin="round" stroke-linecap="butt" d="m413.25986 591.03937l0 -176.22046l173.48032 176.22046z" fill-rule="evenodd"/></g></svg>