<?xml version="1.0" standalone="yes"?>

<svg version="1.1" viewBox="0.0 0.0 1000.0 1000.0" fill="none" stroke="none" stroke-linecap="square" stroke-miterlimit="10" xmlns="http://www.w3.org/2000/svg" xmlns:xlink="http://www.w3.org/1999/xlink"><clipPath id="p.0"><path d="m0 0l1000.0 0l0 1000.0l-1000.0 0l0 -1000.0z" clip-rule="nonzero"></path></clipPath><g clip-path="url(#p.0)"><path fill="#0b5394" d="m0 0l1000.0 0l0 1000.0l-1000.0 0z" fill-rule="evenodd"></path><path fill="#073763" d="m1000.0 999.9685l0 -999.9685l-1000.0 999.9685z" fill-rule="evenodd"></path><path stroke="#073763" stroke-width="1.0" stroke-linejoin="round" stroke-linecap="butt" d="m1000.0 999.9685l0 -999.9685l-1000.0 999.9685z" fill-rule="evenodd"></path><path fill="#000000" fill-opacity="0.0" d="m200.4252 116.89764l599.14966 0l0 734.2047l-599.14966 0z" fill-rule="evenodd"></path><path fill="#ffffff" d="m290.62833 392.21014q-2.609375 9.375 -6.515625 26.8125q-3.890625 17.4375 -8.328125 39.828125q-4.421875 22.375 -9.375 47.109375q-4.9375 24.71875 -8.84375 48.65625q-3.890625 23.9375 -7.015625 45.03125q-3.125 21.078125 -3.640625 35.640625q-0.53125 16.140625 0 31.765625q0.515625 13.53125 1.8125 28.359375q1.296875 14.828125 4.953125 26.28125q-8.859375 4.171875 -15.625 5.984375q-6.765625 1.828125 -10.921875 2.875q-5.203125 1.03125 -8.859375 1.03125q-4.15625 0 -9.875 -0.78125q-5.734375 -0.78125 -10.421875 -5.46875q-4.6875 -4.671875 -7.796875 -14.5625q-3.125 -9.890625 -2.09375 -28.625q0.515625 -12.5 3.90625 -30.984375q3.390625 -18.46875 8.078125 -40.59375q4.671875 -22.125 10.65625 -45.796875q5.984375 -23.6875 11.703125 -46.328125q5.734375 -22.640625 10.671875 -42.9375q4.953125 -20.3125 8.59375 -34.875q4.6875 -18.75 10.421875 -43.734375q9.890625 -42.671875 29.65625 -128.04688q3.65625 -2.59375 7.8125 -4.9375q4.171875 -2.34375 7.296875 -3.90625q3.640625 -2.078125 7.28125 -3.125q16.65625 -6.25 23.671875 -1.5625q7.03125 4.6875 8.078125 18.75q0.515625 9.359375 2.328125 27.0625q1.828125 17.6875 3.390625 39.5625q1.5625 21.859375 2.609375 45.015625q1.046875 23.15625 1.046875 42.9375q0 13.015625 0.515625 30.71875q0.515625 17.6875 1.546875 37.46875q1.046875 19.78125 2.609375 40.34375q1.5625 20.5625 3.640625 39.296875q2.09375 18.734375 4.4375 34.359375q2.34375 15.609375 4.9375 25.5q1.046875 4.171875 2.34375 7.8125q1.296875 3.640625 2.34375 7.28125q3.125 -12.484375 7.03125 -29.65625q3.90625 -17.1875 8.328125 -36.703125q4.421875 -19.515625 8.578125 -40.078125q4.171875 -20.5625 7.296875 -38.78125q2.59375 -14.578125 5.71875 -37.46875q3.125 -22.90625 7.296875 -49.453125q-5.734375 -2.09375 -10.9375 -4.171875q-4.6875 -2.078125 -9.375 -5.203125q-4.671875 -3.125 -7.796875 -7.28125q0.515625 -6.765625 1.296875 -9.890625q0.78125 -3.125 4.9375 -0.53125q3.125 1.5625 9.625 3.65625q6.515625 2.078125 15.359375 3.125q2.609375 -14.578125 5.984375 -29.15625q3.390625 -14.578125 7.03125 -28.109375q5.734375 -22.375 13.015625 -40.328125q7.28125 -17.96875 16.90625 -30.453125q9.640625 -12.5 22.65625 -19.265625q13.015625 -6.765625 30.1875 -7.28125q16.140594 0 26.28122 13.28125q10.15625 13.265625 8.59375 46.046875q-1.046875 24.46875 -10.15625 43.984375q-9.109375 19.515625 -22.125 34.359375q-12.9999695 14.828125 -28.62497 24.46875q-15.609375 9.625 -29.65625 13.78125q-4.6875 24.46875 -8.859375 49.203125q-4.15625 24.71875 -8.0625 47.890625q-3.90625 23.15625 -7.8125 43.984375q-3.90625 20.8125 -7.546875 36.9375q-3.640625 15.625 -7.8125 33.84375q-3.640625 15.609375 -8.84375 35.90625q-5.203125 20.296875 -10.921875 42.6875q-2.09375 4.6875 -5.21875 8.0625q-3.109375 3.390625 -6.234375 5.46875q-3.640625 2.59375 -7.296875 4.15625q-10.40625 4.171875 -17.703125 1.5625q-7.28125 -2.59375 -13.0 -14.046875q-5.734375 -11.96875 -10.15625 -29.671875q-4.421875 -17.703125 -9.109375 -38.515625q-4.671875 -22.390625 -7.015625 -48.671875q-2.34375 -26.28125 -3.65625 -53.609375q-1.296875 -27.328125 -1.8125 -54.390625q-0.515625 -27.0625 -2.078125 -51.015625q-2.609375 -31.234375 -5.21875 -55.953125q-2.59375 -24.71875 -5.71875 -41.90625q-2.078125 10.421875 -4.6875 23.4375q-2.59375 13.0 -5.71875 26.53125zm174.89062 -21.859375q-2.609375 9.890625 -4.171875 18.75q12.5 -7.296875 23.421875 -18.484375q10.9375 -11.1875 18.734375 -23.671875q7.8125 -12.5 12.2343445 -24.984375q4.4375 -12.5 4.953125 -22.90625q0.515625 -7.296875 -1.3125 -11.71875q-1.8125 -4.421875 -6.5 -4.421875q-2.5937195 0 -8.0624695 2.859375q-5.46875 2.859375 -12.234375 11.96875q-6.765625 9.109375 -13.796875 26.296875q-7.015625 17.171875 -13.265625 46.3125zm64.1951 -58.296875q-6.25 2.09375 -9.375 0.53125q-3.109375 -1.5625 -4.671875 -5.203125q-1.5625 -3.65625 -1.5625 -8.078125q0 -4.421875 0.515625 -8.578125q0.515625 -3.65625 1.8125 -8.328125q1.3125 -4.6875 3.390625 -8.84375q2.078125 -4.171875 4.9375 -7.03125q2.875 -2.875 7.5625 -3.90625q23.9375 -4.171875 46.578125 -6.25q22.640625 -2.078125 40.859375 -3.125q20.828125 -1.5625 40.078125 -1.5625q4.171875 0 8.328125 0.265625q4.171875 0.25 8.328125 0.25q4.6875 -1.03125 7.546875 -0.765625q2.859375 0.25 4.953125 0.765625q15.09375 0.53125 31.218689 1.5625q13.546875 1.046875 30.453125 2.359375q16.921875 1.296875 33.578125 3.375q1.5625 4.15625 0.515625 10.40625q-0.515625 3.125 -1.03125 6.25q-0.53125 3.125 -2.609375 5.71875q-1.5625 2.609375 -3.90625 4.953125q-2.34375 2.34375 -5.46875 3.90625q-17.6875 -0.53125 -34.09375 -0.78125q-16.390625 -0.265625 -28.874939 -0.265625l-28.109375 0q-6.765625 23.9375 -16.65625 59.078125q-9.890625 35.125 -20.046875 73.90625q-10.140625 38.78125 -19.25 77.046875q-9.109375 38.25 -14.3125 68.953125q-5.21875 29.671875 -10.421875 58.296875q-2.078125 11.984375 -4.421875 24.984375q-2.34375 13.015625 -4.171875 25.5q-1.8125 12.5 -3.375 23.953125q-1.5625 11.453125 -2.59375 20.828125q-8.328125 4.15625 -15.625 6.5q-7.28125 2.34375 -13.015625 3.390625q-6.765625 1.5625 -12.484375 1.5625q-12.5 0 -15.359375 -2.875q-2.859375 -2.859375 -0.78125 -11.1875q1.5625 -7.28125 9.375 -39.5625q3.125 -13.53125 8.0625 -34.09375q4.953125 -20.5625 11.71875 -49.96875q6.765625 -29.40625 16.125 -68.703125q9.375 -39.296875 21.34375 -90.3125l34.875 -144.70312q-15.609375 2.09375 -30.703125 4.703125q-15.09375 2.59375 -28.375 5.453125q-13.265625 2.859375 -23.9375 5.46875q-10.671875 2.59375 -16.921875 4.15625z" fill-rule="nonzero"></path></g></svg>

