<svg version="1.1" viewBox="0.0 0.0 1920.0 1080.0" fill="none" stroke="none" stroke-linecap="square" stroke-miterlimit="10" xmlns:xlink="http://www.w3.org/1999/xlink" xmlns="http://www.w3.org/2000/svg"><clipPath id="p.0"><path d="m0 0l1920.0 0l0 1080.0l-1920.0 0l0 -1080.0z" clip-rule="nonzero"/></clipPath><g clip-path="url(#p.0)"><path fill="#ffffff" d="m0 0l1920.0 0l0 1080.0l-1920.0 0z" fill-rule="evenodd"/><path fill="#096c3d" d="m403.6063 182.72441l1112.7874 0l0 714.55115l-1112.7874 0z" fill-rule="evenodd"/><path stroke="#096c3d" stroke-width="1.0" stroke-linejoin="round" stroke-linecap="butt" d="m403.6063 182.72441l1112.7874 0l0 714.55115l-1112.7874 0z" fill-rule="evenodd"/><path fill="#d2ad40" d="m410.75067 208.10498l0 0c0 -8.41037 7.339691 -15.2283325 16.393677 -15.2283325l0 0c9.053986 0 16.393707 6.8179626 16.393707 15.2283325l0 0c0 8.410385 -7.3397217 15.228348 -16.393707 15.228348l0 0c-9.053986 0 -16.393677 -6.8179626 -16.393677 -15.228348z" fill-rule="evenodd"/><path stroke="#d2ad40" stroke-width="1.0" stroke-linejoin="round" stroke-linecap="butt" d="m410.75067 208.10498l0 0c0 -8.41037 7.339691 -15.2283325 16.393677 -15.2283325l0 0c9.053986 0 16.393707 6.8179626 16.393707 15.2283325l0 0c0 8.410385 -7.3397217 15.228348 -16.393707 15.228348l0 0c-9.053986 0 -16.393677 -6.8179626 -16.393677 -15.228348z" fill-rule="evenodd"/><path fill="#d2ad40" d="m410.75067 871.8714l0 0c0 -8.4104 7.339691 -15.2283325 16.393677 -15.2283325l0 0c9.053986 0 16.393707 6.817932 16.393707 15.2283325l0 0c0 8.4104 -7.3397217 15.2283325 -16.393707 15.2283325l0 0c-9.053986 0 -16.393677 -6.817932 -16.393677 -15.2283325z" fill-rule="evenodd"/><path stroke="#d2ad40" stroke-width="1.0" stroke-linejoin="round" stroke-linecap="butt" d="m410.75067 871.8714l0 0c0 -8.4104 7.339691 -15.2283325 16.393677 -15.2283325l0 0c9.053986 0 16.393707 6.817932 16.393707 15.2283325l0 0c0 8.4104 -7.3397217 15.2283325 -16.393707 15.2283325l0 0c-9.053986 0 -16.393677 -6.817932 -16.393677 -15.2283325z" fill-rule="evenodd"/><path fill="#d2ad40" d="m1175.1759 208.10498l0 0c0 -8.41037 7.3395996 -15.2283325 16.393677 -15.2283325l0 0c9.053955 0 16.393677 6.8179626 16.393677 15.2283325l0 0c0 8.410385 -7.3397217 15.228348 -16.393677 15.228348l0 0c-9.054077 0 -16.393677 -6.8179626 -16.393677 -15.228348z" fill-rule="evenodd"/><path stroke="#d2ad40" stroke-width="1.0" stroke-linejoin="round" stroke-linecap="butt" d="m1175.1759 208.10498l0 0c0 -8.41037 7.3395996 -15.2283325 16.393677 -15.2283325l0 0c9.053955 0 16.393677 6.8179626 16.393677 15.2283325l0 0c0 8.410385 -7.3397217 15.228348 -16.393677 15.228348l0 0c-9.054077 0 -16.393677 -6.8179626 -16.393677 -15.228348z" fill-rule="evenodd"/><path fill="#d2ad40" d="m1175.1759 871.8714l0 0c0 -8.4104 7.3395996 -15.2283325 16.393677 -15.2283325l0 0c9.053955 0 16.393677 6.817932 16.393677 15.2283325l0 0c0 8.4104 -7.3397217 15.2283325 -16.393677 15.2283325l0 0c-9.054077 0 -16.393677 -6.817932 -16.393677 -15.2283325z" fill-rule="evenodd"/><path stroke="#d2ad40" stroke-width="1.0" stroke-linejoin="round" stroke-linecap="butt" d="m1175.1759 871.8714l0 0c0 -8.4104 7.3395996 -15.2283325 16.393677 -15.2283325l0 0c9.053955 0 16.393677 6.817932 16.393677 15.2283325l0 0c0 8.4104 -7.3397217 15.2283325 -16.393677 15.2283325l0 0c-9.054077 0 -16.393677 -6.817932 -16.393677 -15.2283325z" fill-rule="evenodd"/><path fill="#000000" d="m467.26248 192.87665l684.18896 0l0 30.45668l-684.18896 0z" fill-rule="evenodd"/><path stroke="#000000" stroke-width="1.0" stroke-linejoin="round" stroke-linecap="butt" d="m467.26248 192.87665l684.18896 0l0 30.45668l-684.18896 0z" fill-rule="evenodd"/><path fill="#000000" d="m594.2546 362.7244l188.22046 0l0 193.29135l-188.22046 0z" fill-rule="evenodd"/><path stroke="#000000" stroke-width="1.0" stroke-linejoin="round" stroke-linecap="butt" d="m594.2546 362.7244l188.22046 0l0 193.29135l-188.22046 0z" fill-rule="evenodd"/><path fill="#d9d9d9" d="m1219.3859 646.22046l297.0078 0l0 251.05511l-297.0078 0z" fill-rule="evenodd"/><path stroke="#d9d9d9" stroke-width="1.0" stroke-linejoin="round" stroke-linecap="butt" d="m1219.3859 646.22046l297.0078 0l0 251.05511l-297.0078 0z" fill-rule="evenodd"/><path fill="#d9d9d9" d="m1273.2756 422.09186l243.11804 0l0 199.52759l-243.11804 0z" fill-rule="evenodd"/><path stroke="#d9d9d9" stroke-width="1.0" stroke-linejoin="round" stroke-linecap="butt" d="m1273.2756 422.09186l243.11804 0l0 199.52759l-243.11804 0z" fill-rule="evenodd"/><path fill="#d9d9d9" d="m1273.2756 197.96326l243.11804 0l0 199.52756l-243.11804 0z" fill-rule="evenodd"/><path stroke="#d9d9d9" stroke-width="1.0" stroke-linejoin="round" stroke-linecap="butt" d="m1273.2756 197.96326l243.11804 0l0 199.52756l-243.11804 0z" fill-rule="evenodd"/><path fill="#000000" d="m1095.5223 362.7244l112.44092 0l0 112.44095l-112.44092 0z" fill-rule="evenodd"/><path stroke="#000000" stroke-width="1.0" stroke-linejoin="round" stroke-linecap="butt" d="m1095.5223 362.7244l112.44092 0l0 112.44095l-112.44092 0z" fill-rule="evenodd"/><path fill="#d9d9d9" d="m418.19684 398.86353l32.787415 0l0 245.98425l-32.787415 0z" fill-rule="evenodd"/><path stroke="#d9d9d9" stroke-width="1.0" stroke-linejoin="round" stroke-linecap="butt" d="m418.19684 398.86353l32.787415 0l0 245.98425l-32.787415 0z" fill-rule="evenodd"/><path fill="#d9d9d9" d="m403.6063 433.8084l32.787415 0l0 176.09448l-32.787415 0z" fill-rule="evenodd"/><path stroke="#d9d9d9" stroke-width="1.0" stroke-linejoin="round" stroke-linecap="butt" d="m403.6063 433.8084l32.787415 0l0 176.09448l-32.787415 0z" fill-rule="evenodd"/><path fill="#d9d9d9" d="m1043.0367 651.2913l32.787354 0l0 245.98425l-32.787354 0z" fill-rule="evenodd"/><path stroke="#d9d9d9" stroke-width="1.0" stroke-linejoin="round" stroke-linecap="butt" d="m1043.0367 651.2913l32.787354 0l0 245.98425l-32.787354 0z" fill-rule="evenodd"/><path fill="#d9d9d9" d="m1026.2966 686.2362l32.787354 0l0 176.09448l-32.787354 0z" fill-rule="evenodd"/><path stroke="#d9d9d9" stroke-width="1.0" stroke-linejoin="round" stroke-linecap="butt" d="m1026.2966 686.2362l32.787354 0l0 176.09448l-32.787354 0z" fill-rule="evenodd"/><path fill="#000000" d="m1107.4948 743.8189l56.22046 0l0 112.44092l-56.22046 0z" fill-rule="evenodd"/><path stroke="#000000" stroke-width="1.0" stroke-linejoin="round" stroke-linecap="butt" d="m1107.4948 743.8189l56.22046 0l0 112.44092l-56.22046 0z" fill-rule="evenodd"/><path fill="#d9d9d9" d="m1107.4948 856.2598l56.22046 0l0 30.456726l-56.22046 0z" fill-rule="evenodd"/><path stroke="#d9d9d9" stroke-width="1.0" stroke-linejoin="round" stroke-linecap="butt" d="m1107.4948 856.2598l56.22046 0l0 30.456726l-56.22046 0z" fill-rule="evenodd"/><path fill="#000000" d="m1107.4948 886.71655l56.22046 0l0 16.409424l-56.22046 0z" fill-rule="evenodd"/><path stroke="#000000" stroke-width="1.0" stroke-linejoin="round" stroke-linecap="butt" d="m1107.4948 886.71655l56.22046 0l0 16.409424l-56.22046 0z" fill-rule="evenodd"/><path fill="#000000" d="m1115.4948 903.126l40.22046 0l0 16.409485l-40.22046 0z" fill-rule="evenodd"/><path stroke="#000000" stroke-width="1.0" stroke-linejoin="round" stroke-linecap="butt" d="m1115.4948 903.126l40.22046 0l0 16.409485l-40.22046 0z" fill-rule="evenodd"/><path fill="#d9d9d9" d="m740.49603 759.0446l247.93701 0l0 138.2362l-247.93701 0z" fill-rule="evenodd"/><path stroke="#d9d9d9" stroke-width="1.0" stroke-linejoin="round" stroke-linecap="butt" d="m740.49603 759.0446l247.93701 0l0 138.2362l-247.93701 0z" fill-rule="evenodd"/><path fill="#d9d9d9" d="m459.82153 846.8635l82.51965 0l0 50.015747l-82.51965 0z" fill-rule="evenodd"/><path stroke="#d9d9d9" stroke-width="1.0" stroke-linejoin="round" stroke-linecap="butt" d="m459.82153 846.8635l82.51965 0l0 50.015747l-82.51965 0z" fill-rule="evenodd"/></g></svg>